<svg width="1200" height="630" viewBox="0 0 1200 630" xmlns="http://www.w3.org/2000/svg">
  <rect width="1200" height="630" fill="#16140f"/>
  <rect width="1200" height="6" fill="#ff4d23"/>

  <!-- Logo mark -->
  <rect x="80" y="72" width="48" height="48" fill="#ff4d23"/>
  <text x="88" y="107" fill="#f4f1e8" font-family="system-ui, Arial, sans-serif" font-size="28" font-weight="900" letter-spacing="-2">.H</text>
  <text x="142" y="103" fill="#8c8676" font-family="system-ui, Arial, sans-serif" font-size="20" font-weight="700" letter-spacing="6">DOTHACK</text>

  <!-- Main title -->
  <text x="80" y="230" fill="#f4f1e8" font-family="system-ui, Arial, sans-serif" font-size="76" font-weight="900" letter-spacing="-2">RUN HACKATHONS</text>
  <text x="80" y="310" fill="#ff4d23" font-family="system-ui, Arial, sans-serif" font-size="76" font-weight="900" letter-spacing="-2">END-TO-END</text>

  <!-- Subtitle -->
  <text x="80" y="370" fill="#8c8676" font-family="system-ui, Arial, sans-serif" font-size="18" letter-spacing="3">TEAMS  /  PROJECTS  /  SUBMISSIONS  /  JUDGING  /  LEADERBOARDS</text>

  <!-- Decorative grid dots -->
  <g fill="#8c8676" opacity="0.15">
    <circle cx="900" cy="100" r="3"/>
    <circle cx="930" cy="100" r="3"/>
    <circle cx="960" cy="100" r="3"/>
    <circle cx="990" cy="100" r="3"/>
    <circle cx="1020" cy="100" r="3"/>
    <circle cx="1050" cy="100" r="3"/>
    <circle cx="1080" cy="100" r="3"/>
    <circle cx="900" cy="130" r="3"/>
    <circle cx="930" cy="130" r="3"/>
    <circle cx="960" cy="130" r="3"/>
    <circle cx="990" cy="130" r="3"/>
    <circle cx="1020" cy="130" r="3"/>
    <circle cx="1050" cy="130" r="3"/>
    <circle cx="1080" cy="130" r="3"/>
    <circle cx="900" cy="160" r="3"/>
    <circle cx="930" cy="160" r="3"/>
    <circle cx="960" cy="160" r="3"/>
    <circle cx="990" cy="160" r="3"/>
    <circle cx="1020" cy="160" r="3"/>
    <circle cx="1050" cy="160" r="3"/>
    <circle cx="1080" cy="160" r="3"/>
    <circle cx="900" cy="190" r="3"/>
    <circle cx="930" cy="190" r="3"/>
    <circle cx="960" cy="190" r="3"/>
    <circle cx="990" cy="190" r="3"/>
    <circle cx="1020" cy="190" r="3"/>
    <circle cx="1050" cy="190" r="3"/>
    <circle cx="1080" cy="190" r="3"/>
  </g>

  <!-- Bottom bar -->
  <text x="80" y="570" fill="#8c8676" font-family="system-ui, Arial, sans-serif" font-size="14" letter-spacing="4">HACK.AINATIVE.STUDIO</text>
  <text x="925" y="570" fill="#8c8676" font-family="system-ui, Arial, sans-serif" font-size="13" letter-spacing="2">POWERED BY</text>
  <text x="1033" y="570" fill="#f4f1e8" font-family="system-ui, Arial, sans-serif" font-size="14" font-weight="700" letter-spacing="3">AINATIVE</text>

  <!-- Bottom accent line -->
  <rect x="80" y="590" width="1040" height="2" fill="#8c8676" opacity="0.2"/>
</svg>
